<svg xmlns="http://www.w3.org/2000/svg" width="36" height="36" fill="none" viewBox="0 0 30.857 36"><g clip-path="url(#a)"><path fill="#062630" fill-rule="evenodd" d="M3.857 0A3.857 3.857 0 0 0 0 3.857v28.286A3.857 3.857 0 0 0 3.857 36H27a3.857 3.857 0 0 0 3.857-3.857V3.857A3.857 3.857 0 0 0 27 0H3.857ZM2.571 3.857c0-.71.576-1.286 1.286-1.286h1.286V33.43H3.857c-.71 0-1.286-.576-1.286-1.286V3.857Zm16.208 9.71a1.286 1.286 0 1 1 2.3 1.15l-3.858 7.715a1.286 1.286 0 1 1-2.3-1.15l3.858-7.714Zm-4.691.631a1.286 1.286 0 0 1 0 1.818L12.104 18l1.984 1.984a1.286 1.286 0 0 1-1.819 1.818l-2.892-2.893a1.286 1.286 0 0 1 0-1.818l2.892-2.893a1.286 1.286 0 0 1 1.819 0Zm7.824 1.818a1.286 1.286 0 0 1 1.819-1.818l2.892 2.893a1.286 1.286 0 0 1 0 1.818l-2.892 2.893a1.286 1.286 0 0 1-1.819-1.818L23.896 18l-1.984-1.984Z" clip-rule="evenodd"/><path fill="#062630" d="M7.429 12h22v12h-22V12Z"/><path stroke="#FF9A60" stroke-linecap="round" stroke-linejoin="round" stroke-width="1.422" d="m14.683 12.695-2.735-2.747m8.504 8.513-2.798-2.798m-1.593.725v5.844m2.103 2.105a2.105 2.105 0 1 1-4.209.001 2.105 2.105 0 0 1 4.21-.001Zm5.903-4.417a2.104 2.104 0 1 1-4.209.001 2.104 2.104 0 0 1 4.21-.001Zm-5.903-5.636a2.105 2.105 0 1 1-4.209.001 2.105 2.105 0 0 1 4.21-.001Z"/></g><defs><clipPath id="a"><path fill="#fff" d="M0 0h30.857v36H0z"/></clipPath></defs></svg>
